<svg width="222" height="50" viewBox="0 0 222 50" fill="none" xmlns="http://www.w3.org/2000/svg">
<path d="M52.4536 25.1816C52.4536 7.81851 40.7112 0 26.2268 0C11.7424 0 2.80214e-06 7.81781 2.80214e-06 25.1816C-0.00132746 27.878 0.470987 30.5537 1.39542 33.0867C1.08877 33.8554 0.882183 34.6604 0.780737 35.4819C0.688089 36.1132 0.629398 36.749 0.604915 37.3866C0.604915 37.9008 0.820505 37.9448 1.26634 37.5331C1.74688 37.0747 2.34429 36.7573 2.99317 36.6157C3.00291 36.6157 3.0126 36.6141 3.02177 36.6108C3.0841 36.7206 3.14712 36.8299 3.21085 36.9387C3.06252 37.6219 3.01039 38.3224 3.05596 39.02C3.07509 39.5319 3.12168 40.0424 3.1955 40.5493C3.27016 40.9547 3.44807 40.9596 3.73902 40.5675C4.05108 40.1355 4.47587 39.7976 4.96698 39.5907C4.97796 39.5889 4.9883 39.5844 4.99698 39.5774C7.5601 42.7363 10.7959 45.2833 14.4684 47.0328C18.1409 48.7823 22.1575 49.6901 26.2254 49.6901C30.2933 49.6901 34.31 48.7823 37.9825 47.0328C41.655 45.2833 44.8907 42.7363 47.4539 39.5774C47.4625 39.5844 47.4729 39.5889 47.4839 39.5907C47.975 39.7976 48.3997 40.1355 48.7118 40.5675C49.0021 40.9596 49.1807 40.9554 49.2553 40.5493C49.3292 40.0424 49.3757 39.5319 49.3949 39.02C49.4403 38.3224 49.3882 37.6219 49.24 36.9387C49.3037 36.8299 49.3667 36.7206 49.4291 36.6108C49.4382 36.6141 49.4479 36.6157 49.4577 36.6157C50.1065 36.7573 50.704 37.0747 51.1845 37.5331C51.6296 37.9469 51.8466 37.9008 51.8459 37.3866C51.8214 36.749 51.7627 36.1132 51.6701 35.4819C51.5152 34.2874 52.4536 27.9474 52.4536 25.1816Z" fill="#EE3A25"/>
<path d="M26.2268 39.9494C36.3314 39.9494 44.5228 31.758 44.5228 21.6534C44.5228 11.5488 36.3314 3.35742 26.2268 3.35742C16.1222 3.35742 7.93085 11.5488 7.93085 21.6534C7.93085 31.758 16.1222 39.9494 26.2268 39.9494Z" fill="white"/>
<path d="M26.2275 34.3139C33.2197 34.3139 38.8881 28.6455 38.8881 21.6533C38.8881 14.661 33.2197 8.99268 26.2275 8.99268C19.2352 8.99268 13.5669 14.661 13.5669 21.6533C13.5669 28.6455 19.2352 34.3139 26.2275 34.3139Z" fill="#00263F"/>
<path opacity="0.96" d="M29.6546 19.7515C31.2642 19.7515 32.5689 18.4467 32.5689 16.8372C32.5689 15.2276 31.2642 13.9229 29.6546 13.9229C28.0451 13.9229 26.7403 15.2276 26.7403 16.8372C26.7403 18.4467 28.0451 19.7515 29.6546 19.7515Z" fill="white"/>
<path d="M34.2121 14.3379C35.1789 14.3379 35.9626 13.5541 35.9626 12.5873C35.9626 11.6205 35.1789 10.8368 34.2121 10.8368C33.2453 10.8368 32.4615 11.6205 32.4615 12.5873C32.4615 13.5541 33.2453 14.3379 34.2121 14.3379Z" fill="white"/>
<path d="M19.983 46.3077C20.4598 45.084 21.2287 43.9956 22.2227 43.1373C22.2586 43.1057 22.285 43.0647 22.2991 43.019C22.3131 42.9732 22.3143 42.9245 22.3023 42.8781C22.2904 42.8318 22.2659 42.7896 22.2316 42.7563C22.1972 42.723 22.1543 42.6999 22.1076 42.6894L19.2742 42.0482C19.21 42.0336 19.1426 42.0439 19.0858 42.0771C19.0289 42.1102 18.9868 42.1638 18.9679 42.2268C18.7733 42.9151 18.7213 43.6359 18.8148 44.345C18.9084 45.0541 19.1457 45.7367 19.5121 46.351C19.5369 46.3941 19.5736 46.4292 19.6178 46.4522C19.662 46.4751 19.7119 46.4848 19.7614 46.4803C19.811 46.4757 19.8582 46.4571 19.8975 46.4265C19.9368 46.3959 19.9665 46.3547 19.983 46.3077Z" fill="white"/>
<path d="M32.4706 46.3077C31.9939 45.0841 31.225 43.9956 30.231 43.1373C30.1951 43.1057 30.1686 43.0647 30.1546 43.019C30.1405 42.9732 30.1394 42.9245 30.1513 42.8781C30.1632 42.8318 30.1877 42.7896 30.2221 42.7563C30.2565 42.723 30.2994 42.6999 30.3461 42.6894L33.1795 42.0482C33.2437 42.0336 33.311 42.0439 33.3679 42.0771C33.4247 42.1102 33.4669 42.1638 33.4858 42.2268C33.6803 42.9151 33.7324 43.6359 33.6388 44.345C33.5452 45.0541 33.308 45.7367 32.9416 46.351C32.9167 46.3941 32.88 46.4292 32.8358 46.4522C32.7916 46.4751 32.7418 46.4848 32.6922 46.4803C32.6426 46.4757 32.5954 46.4571 32.5561 46.4265C32.5168 46.3959 32.4872 46.3547 32.4706 46.3077Z" fill="white"/>
<path d="M35.8705 40.7363L35.35 40.0232L35.1581 39.7602L34.9418 40.0093L34.8944 40.0553L34.8421 40.1048C34.8067 40.1383 34.7707 40.1713 34.7339 40.2039C34.6604 40.269 34.5853 40.3332 34.5086 40.3965C34.3565 40.5228 34.1995 40.6449 34.039 40.7614C33.7181 40.9957 33.3848 41.2125 33.0406 41.4109C32.698 41.6113 32.3452 41.7937 31.9836 41.9572C31.6236 42.1219 31.2559 42.2712 30.8819 42.401C30.1327 42.6597 29.3623 42.8523 28.5795 42.9766C27.7949 43.1004 27.0015 43.1606 26.2072 43.1566C25.4143 43.1555 24.6227 43.0892 23.8406 42.9585C23.0577 42.8261 22.2875 42.6274 21.5382 42.3647C21.1642 42.2335 20.7965 42.0807 20.4344 41.9182C20.0723 41.7556 19.7179 41.5693 19.3725 41.3747C19.0271 41.18 18.6895 40.9644 18.3622 40.7363C18.199 40.6218 18.0392 40.503 17.8829 40.3797C17.8048 40.3188 17.7278 40.2565 17.652 40.1928L17.5403 40.0965L17.4859 40.0483L17.4357 40.003L17.2061 39.756L17.0254 40.0351L16.5663 40.7481C16.5457 40.7768 16.5312 40.8093 16.5236 40.8438C16.516 40.8782 16.5155 40.9139 16.5222 40.9485C16.5288 40.9832 16.5424 41.0161 16.5622 41.0453C16.582 41.0745 16.6076 41.0994 16.6373 41.1183C16.667 41.1373 16.7003 41.1501 16.7352 41.1558C16.77 41.1615 16.8056 41.16 16.8398 41.1515C16.8741 41.143 16.9062 41.1275 16.9343 41.1062C16.9623 41.0848 16.9858 41.0579 17.0031 41.0272L17.2822 40.5988C17.3538 40.6732 17.4268 40.746 17.5013 40.8172C17.6548 40.9637 17.8124 41.1033 17.9743 41.24C18.2988 41.5103 18.638 41.7625 18.9902 41.9956C19.6972 42.4612 20.4497 42.8537 21.2361 43.1671C22.8168 43.7946 24.5023 44.1164 26.2031 44.1153C26.6263 44.1153 27.0492 44.099 27.4715 44.0664C27.8938 44.0339 28.3141 43.9792 28.7323 43.9024C29.5689 43.755 30.3887 43.5238 31.1791 43.2124C31.9695 42.9025 32.7238 42.5074 33.4285 42.034C33.7793 41.7964 34.1157 41.5382 34.436 41.2609C34.5951 41.1214 34.7507 40.977 34.9007 40.8263C34.9756 40.7504 35.0488 40.673 35.1205 40.5939L35.4463 41.0398C35.488 41.0924 35.5484 41.1268 35.6149 41.1358C35.6814 41.1448 35.7488 41.1277 35.803 41.088C35.8571 41.0484 35.8938 40.9893 35.9054 40.9232C35.9169 40.8571 35.9024 40.7891 35.8649 40.7335L35.8705 40.7363Z" fill="#001D30"/>
<path d="M87.8511 24.2246V24.1548C88.7134 23.6559 89.4211 22.9284 89.896 22.0527C90.3708 21.1769 90.5945 20.1869 90.5422 19.1921C90.5422 15.2772 87.5009 12.6204 81.9087 12.6204H74.8479C74.5197 12.6262 74.2071 12.7615 73.978 12.9967C73.749 13.2318 73.6221 13.5479 73.6249 13.8762V35.8261C73.6221 36.1544 73.749 36.4705 73.978 36.7057C74.2071 36.9409 74.5197 37.0761 74.8479 37.082H82.8178C88.4449 37.082 91.4861 34.3211 91.4861 30.0212C91.5431 28.7997 91.2255 27.59 90.5758 26.554C89.9262 25.518 88.9755 24.7053 87.8511 24.2246ZM78.3435 16.7096H81.908C83.9705 16.7096 85.7887 17.4436 85.7887 19.6812C85.7887 21.9529 84.0758 22.7922 81.908 22.7922H78.3435V16.7096ZM82.8171 32.9983H78.3435V26.5661H82.8171C84.9103 26.5661 86.6622 27.4034 86.6622 29.7114C86.6622 31.8792 85.0547 32.9976 82.8171 32.9976V32.9983Z" fill="#EE3A25"/>
<path d="M113.61 12.6199H111.339C111.01 12.6256 110.697 12.7607 110.468 12.9959C110.239 13.2311 110.112 13.5473 110.114 13.8757V27.4364C110.114 31.4908 107.599 32.9943 104.942 32.9943C102.25 32.9943 99.7687 31.4908 99.7687 27.4364V13.8785C99.7687 13.5454 99.6363 13.226 99.4008 12.9905C99.1653 12.755 98.8459 12.6227 98.5128 12.6227H96.2725C95.9394 12.6227 95.6199 12.755 95.3844 12.9905C95.1489 13.226 95.0166 13.5454 95.0166 13.8785V28.0692C95.0166 33.8358 98.547 37.5057 104.943 37.5057C111.339 37.5057 114.834 33.8358 114.834 28.0692V13.8785C114.837 13.5498 114.711 13.2329 114.481 12.9972C114.252 12.7614 113.939 12.6257 113.61 12.6199Z" fill="#EE3A25"/>
<path d="M132.659 27.2996C133.96 26.7344 135.065 25.7944 135.83 24.5995C136.596 23.4046 136.989 22.0087 136.959 20.5898C136.959 15.941 133.358 12.6199 127.87 12.6199H120.636C120.303 12.6199 119.983 12.7522 119.748 12.9877C119.512 13.2232 119.38 13.5427 119.38 13.8757V35.8256C119.38 36.1587 119.512 36.4781 119.748 36.7136C119.983 36.9492 120.303 37.0815 120.636 37.0815H122.872C123.205 37.0815 123.524 36.9492 123.76 36.7136C123.995 36.4781 124.128 36.1587 124.128 35.8256V28.2785H128.252L132.795 36.2826C132.933 36.5242 133.131 36.7256 133.37 36.8666C133.609 37.0076 133.882 37.0834 134.159 37.0864H137.269C137.408 37.0878 137.545 37.0519 137.665 36.9822C137.786 36.9125 137.885 36.8117 137.953 36.6903C138.021 36.569 138.055 36.4316 138.051 36.2926C138.048 36.1536 138.007 36.0181 137.933 35.9003L132.659 27.2996ZM127.87 24.1899H124.13V17.0245H127.87C130.491 17.0245 132.134 18.3885 132.134 20.5905C132.134 23.0708 130.281 24.1893 127.87 24.1893V24.1899Z" fill="#EE3A25"/>
<path d="M155.307 12.6199H141.29C140.962 12.6257 140.649 12.761 140.42 12.9962C140.191 13.2314 140.064 13.5475 140.067 13.8757V15.7596C140.064 16.0878 140.191 16.4039 140.42 16.6391C140.649 16.8743 140.962 17.0095 141.29 17.0154H145.939V35.8277C145.936 36.156 146.063 36.4721 146.292 36.7073C146.521 36.9425 146.834 37.0777 147.162 37.0836H149.434C149.597 37.0836 149.759 37.0509 149.909 36.9874C150.06 36.9239 150.196 36.8309 150.31 36.7139C150.424 36.5968 150.514 36.4581 150.574 36.3059C150.633 36.1537 150.662 35.9911 150.657 35.8277V17.0238H155.306C155.639 17.0238 155.959 16.8915 156.194 16.656C156.43 16.4204 156.562 16.101 156.562 15.7679V13.8841C156.563 13.7185 156.531 13.5544 156.469 13.4011C156.406 13.2478 156.314 13.1084 156.197 12.9909C156.081 12.8734 155.942 12.7801 155.789 12.7165C155.636 12.6528 155.472 12.62 155.307 12.6199Z" fill="#EE3A25"/>
<path d="M178.654 12.6199H176.382C176.054 12.6257 175.742 12.761 175.513 12.9962C175.283 13.2314 175.157 13.5475 175.159 13.8757V27.4364C175.159 31.4908 172.643 32.9943 169.986 32.9943C167.295 32.9943 164.814 31.4908 164.814 27.4364V13.8785C164.814 13.5454 164.681 13.226 164.446 12.9905C164.21 12.755 163.891 12.6227 163.558 12.6227H161.32C160.987 12.6227 160.668 12.755 160.432 12.9905C160.197 13.226 160.065 13.5454 160.065 13.8785V28.0692C160.065 33.8358 163.595 37.5057 169.991 37.5057C176.387 37.5057 179.883 33.8358 179.883 28.0692V13.8785C179.886 13.5489 179.759 13.2313 179.529 12.9954C179.298 12.7595 178.984 12.6245 178.654 12.6199Z" fill="#EE3A25"/>
<path d="M197.355 32.6826H189.175V13.8787C189.175 13.5456 189.043 13.2261 188.807 12.9906C188.572 12.7551 188.252 12.6228 187.919 12.6228H185.647C185.319 12.6285 185.006 12.7636 184.777 12.9988C184.547 13.234 184.42 13.5502 184.423 13.8787V35.8285C184.42 36.157 184.547 36.4732 184.777 36.7084C185.006 36.9436 185.319 37.0787 185.647 37.0844H197.355C197.518 37.0844 197.68 37.0516 197.83 36.9881C197.981 36.9245 198.117 36.8315 198.231 36.7145C198.345 36.5974 198.435 36.4587 198.494 36.3066C198.554 36.1544 198.582 35.9919 198.578 35.8285V33.9447C198.583 33.7809 198.555 33.6177 198.496 33.4648C198.437 33.3119 198.348 33.1725 198.234 33.0547C198.12 32.937 197.983 32.8434 197.832 32.7795C197.681 32.7155 197.519 32.6826 197.355 32.6826Z" fill="#EE3A25"/>
<path d="M212.079 12.5586C205.683 12.5586 202.186 16.2285 202.186 21.9951V36.1858C202.184 36.5141 202.311 36.8302 202.54 37.0654C202.769 37.3005 203.082 37.4357 203.41 37.4416H205.682C206.01 37.4357 206.323 37.3005 206.552 37.0653C206.781 36.8301 206.908 36.514 206.905 36.1858V28.5808H217.251V36.1858C217.251 36.5188 217.383 36.8383 217.619 37.0738C217.854 37.3093 218.173 37.4416 218.507 37.4416H220.744C221.077 37.4416 221.397 37.3093 221.632 37.0738C221.868 36.8383 222 36.5188 222 36.1858V21.9937C222.005 16.2285 218.475 12.5586 212.079 12.5586ZM206.905 24.1796V22.6216C206.905 18.5672 209.422 17.0637 212.079 17.0637C214.77 17.0637 217.251 18.5672 217.251 22.6216V24.1768L206.905 24.1796Z" fill="#EE3A25"/>
</svg>
