<svg width="116" height="33" viewBox="0 0 116 33" fill="none" xmlns="http://www.w3.org/2000/svg">
<rect y="1" width="56.8333" height="31" rx="15.5" fill="#AADBD1"/>
<circle cx="15.5" cy="16.5" r="11.625" fill="#EE3A25"/>
<path d="M98.333 19.5439V16.8027H96.0771V15.668H99.7002V20.0498C99.167 20.4281 98.5791 20.7152 97.9365 20.9111C97.2939 21.1025 96.6081 21.1982 95.8789 21.1982C94.2839 21.1982 93.0352 20.7334 92.1328 19.8037C91.235 18.8695 90.7861 17.5706 90.7861 15.9072C90.7861 14.2393 91.235 12.9404 92.1328 12.0107C93.0352 11.0765 94.2839 10.6094 95.8789 10.6094C96.5443 10.6094 97.1755 10.6914 97.7725 10.8555C98.374 11.0195 98.9277 11.2611 99.4336 11.5801V13.0498C98.9232 12.6169 98.3809 12.291 97.8066 12.0723C97.2324 11.8535 96.6286 11.7441 95.9951 11.7441C94.7464 11.7441 93.8076 12.0928 93.1787 12.79C92.5544 13.4873 92.2422 14.5264 92.2422 15.9072C92.2422 17.2835 92.5544 18.3203 93.1787 19.0176C93.8076 19.7148 94.7464 20.0635 95.9951 20.0635C96.4827 20.0635 96.918 20.0225 97.3008 19.9404C97.6836 19.8538 98.0277 19.7217 98.333 19.5439ZM102.229 10.7939H108.683V11.9561H103.61V14.9775H108.471V16.1396H103.61V19.8379H108.806V21H102.229V10.7939Z" fill="#AADBD1"/>
<circle cx="99.5" cy="16.5" r="15.5" stroke="#AADBD1"/>
</svg>
